<?xml version="1.0" encoding="iso-8859-1"?>
<!-- Uploaded to: SVG Repo, www.svgrepo.com, Generator: SVG Repo Mixer Tools -->
<svg height="800px" width="800px" version="1.1" id="Layer_1" xmlns="http://www.w3.org/2000/svg" xmlns:xlink="http://www.w3.org/1999/xlink" 
	 viewBox="0 0 512.001 512.001" xml:space="preserve">
<g>
	<path style="fill:#FFE4C7;" d="M444.169,208.608c20.612,0,37.31,16.71,37.31,37.31c0,20.612-16.699,37.31-37.31,37.31
		c-7.685,0-14.818-2.315-20.753-6.299c1.857-10.059,2.82-20.424,2.82-31.011c0-10.588-0.964-20.952-2.82-31.012
		C429.351,210.935,436.495,208.608,444.169,208.608z"/>
	<path style="fill:#FFE4C7;" d="M423.416,214.907c1.857,10.059,2.82,20.424,2.82,31.012c0,10.588-0.964,20.952-2.82,31.011
		c-14.583,79.215-83.986,139.229-167.408,139.229c-83.434,0-152.837-60.014-167.408-139.24c-1.857-10.047-2.82-20.412-2.82-31
		c0-10.588,0.964-20.952,2.82-31C103.172,135.703,172.574,75.69,256.008,75.69C339.43,75.69,408.833,135.703,423.416,214.907z"/>
</g>
<path style="fill:#97C2F7;" d="M291.645,447.201c7.24-8.305,11.626-19.163,11.626-31.043h19.131c23.22,0,44.243,9.413,59.461,24.631
	c15.218,15.218,24.631,36.229,24.631,59.461H105.522c0-46.453,37.651-84.092,84.092-84.092h19.131
	c0,26.099,21.152,47.263,47.263,47.263C270.226,463.422,282.981,457.139,291.645,447.201"/>
<g>
	<path style="fill:#FFE4C7;" d="M256.008,416.158h47.263c0,26.099-21.164,47.263-47.263,47.263
		c-26.111,0-47.263-21.164-47.263-47.263H256.008z"/>
	<path style="fill:#FFE4C7;" d="M88.6,214.918c-1.857,10.047-2.82,20.412-2.82,31s0.964,20.952,2.82,31
		c-5.923,3.984-13.067,6.31-20.764,6.31c-20.6,0-37.31-16.699-37.31-37.31c0-20.6,16.71-37.31,37.31-37.31
		C75.521,208.608,82.666,210.935,88.6,214.918z"/>
</g>
<path d="M444.169,196.857c-4.235,0-8.41,0.542-12.443,1.597C411.792,124.239,346.99,70.463,270.237,64.5
	c5.136-23.416,26.027-40.998,50.954-40.998c6.489,0,11.751-5.262,11.751-11.751S327.68,0,321.191,0
	c-29.892,0-55.784,17.426-68.074,42.65c-7.254-5.82-16.451-9.313-26.453-9.313c-6.489,0-11.751,5.262-11.751,11.751
	s5.262,11.751,11.751,11.751c6.201,0,11.695,3.024,15.132,7.658c-76.772,5.954-141.582,59.736-161.507,133.957
	c-4.034-1.056-8.213-1.598-12.455-1.598c-27.053,0-49.061,22.009-49.061,49.061s22.009,49.061,49.061,49.061
	c4.245,0,8.423-0.542,12.455-1.596c13.273,49.442,46.457,89.811,89.829,113.021c-43.531,9.031-76.348,47.676-76.348,93.845
	c0,6.489,5.262,11.751,11.751,11.751h227.527c6.489,0,11.751-5.262,11.751-11.751s-5.262-11.751-11.751-11.751H118.226
	c5.63-34.319,35.498-60.589,71.386-60.589h8.558c5.463,26.93,29.318,47.263,57.836,47.263s52.373-20.333,57.836-47.263h8.558
	c19.323,0,37.489,7.524,51.152,21.189c13.664,13.664,21.189,31.831,21.189,51.151c0,6.489,5.262,11.751,11.751,11.751
	s11.751-5.262,11.751-11.751c0-25.598-9.969-49.667-28.073-67.771c-13.414-13.413-30.105-22.347-48.266-26.083
	c43.362-23.211,76.542-63.576,89.817-113.009c4.028,1.053,8.204,1.593,12.443,1.593c27.052,0,49.061-22.009,49.061-49.061
	S471.221,196.857,444.169,196.857z M42.277,245.918c0-14.093,11.466-25.559,25.559-25.559c2.68,0,5.309,0.424,7.815,1.228
	c-1.074,8.026-1.622,16.174-1.622,24.331c0,8.158,0.549,16.31,1.622,24.333c-2.502,0.801-5.129,1.226-7.815,1.226
	C53.741,271.477,42.277,260.011,42.277,245.918z M256.007,451.669c-15.463,0-28.642-9.939-33.505-23.761h67.009
	C284.651,441.731,271.471,451.669,256.007,451.669z M256.007,404.407c-76.492,0-142.037-54.512-155.853-129.625
	c-0.004-0.02-0.007-0.041-0.011-0.061c-0.005-0.023-0.008-0.048-0.013-0.072c-1.725-9.383-2.602-19.049-2.602-28.731
	c0-9.685,0.877-19.352,2.605-28.747c0.004-0.019,0.006-0.036,0.009-0.055c0.005-0.024,0.008-0.047,0.012-0.071
	c13.815-75.097,79.358-129.604,155.851-129.604c76.479,0,142.024,54.502,155.851,129.594c0.001,0.002,0.001,0.004,0.001,0.006
	c0.002,0.013,0.005,0.026,0.007,0.039c0.005,0.023,0.008,0.047,0.012,0.072c1.729,9.403,2.606,19.08,2.606,28.768
	c0,9.683-0.878,19.357-2.606,28.762c-0.002,0.012-0.004,0.023-0.006,0.035c-0.006,0.028-0.009,0.058-0.015,0.086
	C398.034,349.9,332.489,404.407,256.007,404.407z M444.169,271.477c-2.679,0-5.303-0.422-7.803-1.221
	c1.074-8.032,1.622-16.184,1.622-24.338c0-8.153-0.548-16.302-1.622-24.333c2.504-0.801,5.128-1.226,7.803-1.226
	c14.093,0,25.559,11.466,25.559,25.559S458.262,271.477,444.169,271.477z"/>
<path d="M294.222,280.886c-5.588-3.309-12.792-1.463-16.102,4.116c-3.521,5.94-9.53,10.256-16.488,11.842
	c-7.016,1.598-14.059,0.36-19.851-3.5c-3.203-2.127-5.937-5.01-7.907-8.337c-3.306-5.584-10.509-7.43-16.098-4.125
	c-5.584,3.306-7.431,10.514-4.125,16.098c3.762,6.355,8.992,11.868,15.113,15.934c7.974,5.312,17.435,8.087,27.037,8.087
	c3.689,0,7.399-0.41,11.052-1.243c13.215-3.012,24.691-11.312,31.484-22.773C301.646,291.406,299.804,284.197,294.222,280.886z"/>
<path d="M177.052,194.329c-6.489,0-11.751,5.262-11.751,11.751v26.065c0,6.489,5.262,11.751,11.751,11.751
	c6.489,0,11.751-5.262,11.751-11.751V206.08C188.803,199.591,183.542,194.329,177.052,194.329z"/>
<path d="M334.965,194.329c-6.489,0-11.751,5.262-11.751,11.751v26.065c0,6.489,5.262,11.751,11.751,11.751
	s11.751-5.262,11.751-11.751V206.08C346.716,199.591,341.454,194.329,334.965,194.329z"/>
<path d="M366.148,512h4.897c6.489,0,11.751-5.262,11.751-11.751s-5.262-11.751-11.751-11.751h-4.897
	c-6.489,0-11.751,5.262-11.751,11.751S359.659,512,366.148,512z"/>
</svg>