<?xml version="1.0" encoding="utf-8"?><!-- Uploaded to: SVG Repo, www.svgrepo.com, Generator: SVG Repo Mixer Tools -->
<svg width="800px" height="800px" viewBox="0 0 24 24" fill="none" xmlns="http://www.w3.org/2000/svg">
<path d="M3 8C2.44772 8 2 8.44772 2 9V17C2 19.7614 4.23858 22 7 22H17C19.7614 22 22 19.7614 22 17V9C22 8.44772 21.5523 8 21 8H3Z" fill="#4296FF"/>
<path d="M7 2C7.55228 2 8 2.44772 8 3V4H16V3C16 2.44772 16.4477 2 17 2C17.5523 2 18 2.44772 18 3V4.10002C20.2822 4.56329 22 6.58104 22 9C22 9.55228 21.5523 10 21 10H3C2.44772 10 2 9.55228 2 9C2 6.58104 3.71776 4.56329 6 4.10002V3C6 2.44772 6.44772 2 7 2Z" fill="#152C70"/>
<path fill-rule="evenodd" clip-rule="evenodd" d="M7 13C7 12.4477 7.44772 12 8 12H16C16.5523 12 17 12.4477 17 13C17 13.5523 16.5523 14 16 14H8C7.44772 14 7 13.5523 7 13Z" fill="#152C70"/>
<path fill-rule="evenodd" clip-rule="evenodd" d="M7 17C7 16.4477 7.44772 16 8 16H12C12.5523 16 13 16.4477 13 17C13 17.5523 12.5523 18 12 18H8C7.44772 18 7 17.5523 7 17Z" fill="#152C70"/>
</svg>